<svg xmlns="http://www.w3.org/2000/svg" width="32" height="32" viewBox="0 0 32 32" fill="none"><path d="M2.66667 32.0003C1.86667 32.0003 1.33333 31.7336 0.8 31.2003C-0.266667 30.1336 -0.266667 28.5336 0.8 27.4669L27.4667 0.800275C28.5333 -0.266392 30.1333 -0.266392 31.2 0.800275C32.2667 1.86694 32.2667 3.46694 31.2 4.53361L4.53333 31.2003C4 31.7336 3.46667 32.0003 2.66667 32.0003Z" fill="white"></path><path d="M29.3366 29.3338C27.7366 29.3338 26.6699 28.2671 26.6699 26.6671V5.33376H5.33659C3.73659 5.33376 2.66992 4.26709 2.66992 2.66709C2.66992 1.06709 3.73659 0.000427246 5.33659 0.000427246H29.3366C30.9366 0.000427246 32.0033 1.06709 32.0033 2.66709V26.6671C32.0033 28.2671 30.9366 29.3338 29.3366 29.3338Z" fill="white"></path></svg>