<svg width="30" height="30" viewBox="0 0 30 30" fill="none" xmlns="http://www.w3.org/2000/svg">
<g clip-path="url(#clip0_85_19380)">
<path d="M12.471 23.5725L17.1425 28.2225C17.4291 28.5163 17.7874 28.7301 18.1821 28.8429C18.5767 28.9556 18.9939 28.9634 19.3925 28.8654C19.7935 28.7722 20.1638 28.5773 20.4678 28.2996C20.7718 28.0219 20.9992 27.6707 21.1282 27.2797L28.7996 4.28682C28.9597 3.856 28.9927 3.38827 28.8948 2.93923C28.7968 2.49019 28.572 2.07872 28.247 1.75373C27.922 1.42874 27.5105 1.2039 27.0615 1.10593C26.6124 1.00797 26.1447 1.041 25.7139 1.20111L2.72103 8.87253C2.31657 9.01069 1.95634 9.25434 1.67756 9.57832C1.39879 9.9023 1.21159 10.2948 1.13532 10.7154C1.05659 11.0979 1.07411 11.4939 1.18632 11.8679C1.29853 12.242 1.50191 12.5823 1.77818 12.8582L7.6496 18.7297L7.45675 26.1654L12.471 23.5725Z" stroke="#002B4D" stroke-width="1.5" stroke-linecap="round" stroke-linejoin="round"/>
<path d="M28.1137 1.67188L7.64941 18.729" stroke="#002B4D" stroke-width="1.5" stroke-linecap="round" stroke-linejoin="round"/>
</g>
<defs>
<clipPath id="clip0_85_19380">
<rect width="30" height="30" fill="white" transform="translate(-0.000488281)"/>
</clipPath>
</defs>
</svg>
